<svg width="513" height="362" viewBox="0 0 513 362" fill="none" xmlns="http://www.w3.org/2000/svg">
<path d="M508.501 14.2778C525.228 240.849 379.587 347.939 249.024 359.359C127.639 369.975 13.3804 295.388 3.3566 180.791C-4.91197 86.115 53.6025 45.8083 99.5766 41.7904C146.862 37.6455 186.598 70.2546 190.045 109.736C193.365 147.696 169.68 164.973 153.206 166.411C140.179 167.553 123.79 159.644 122.31 142.663C121.041 128.071 126.582 126.083 125.228 110.582C122.817 82.9852 98.7518 79.7708 85.5771 80.9128C69.6321 82.3085 40.7026 100.918 44.7629 147.273C48.8443 194.029 93.6765 230.974 152.445 225.835C215.865 220.294 260.021 170.915 263.341 101.658C263.311 97.99 264.083 94.3596 265.604 91.0212L265.625 90.9366C266.308 89.486 267.107 88.0928 268.014 86.7706C269.368 84.7404 271.102 82.4988 273.344 80.0457C273.365 79.9823 273.365 79.9823 273.407 79.9823C275.035 78.1425 277.002 76.1546 279.222 74.0188C306.925 47.8808 406.698 -13.7635 501.057 5.75544C503.051 6.18293 504.854 7.24383 506.195 8.77978C507.537 10.3157 508.346 12.2444 508.501 14.2778" fill="url(#paint0_linear_88_1633)"/>
<defs>
<linearGradient id="paint0_linear_88_1633" x1="495.636" y1="12.0198" x2="167.313" y2="476.751" gradientUnits="userSpaceOnUse">
<stop stop-color="#11C4D1"/>
<stop offset="1" stop-color="#0062AD"/>
</linearGradient>
</defs>
</svg>
