<svg width="400" height="400" viewBox="0 0 400 400" fill="none" xmlns="http://www.w3.org/2000/svg">
<path d="M175.358 0C163.184 -1.12679e-06 151.509 4.83616 142.901 13.4445L7.68217 148.666C2.56067 153.787 -4.19303e-05 160.5 5.14944e-10 167.213C4.19313e-05 173.925 2.56083 180.638 7.68232 185.76L96.2953 274.373V117.495C96.2953 105.788 105.712 96.2969 117.419 96.2969C166.881 96.2969 287.278 96.2969 303.701 96.2969L399.996 0.00136472L175.358 0Z" fill="#4A21EF"/>
<path d="M96.2995 303.703H282.507C294.214 303.703 303.705 294.212 303.705 282.504V125.626L392.318 214.24C397.439 219.362 400 226.074 400 232.787C400 239.5 397.439 246.212 392.318 251.334L257.099 386.555C248.491 395.163 236.816 400 224.642 400L0.00420026 399.998L96.2995 303.703Z" fill="#4A21EF"/>
</svg>
