<svg width="32" height="32" viewBox="0 0 32 32" fill="none" xmlns="http://www.w3.org/2000/svg">
<path d="M0 10C0 4.47715 4.47715 0 10 0H22C27.5228 0 32 4.47715 32 10V22C32 27.5228 27.5228 32 22 32H10C4.47715 32 0 27.5228 0 22V10Z" fill="#18EFB1"/>
<path d="M10 10.6C10 10.2686 10.2686 10 10.6 10H21.4C21.7314 10 22 10.2686 22 10.6V12.0667C22 12.398 21.7314 12.6667 21.4 12.6667H10.6C10.2686 12.6667 10 12.398 10 12.0667V10.6Z" fill="black"/>
<path d="M10 15.2667C10 14.9353 10.2686 14.6667 10.6 14.6667H21.4C21.7314 14.6667 22 14.9353 22 15.2667V16.7333C22 17.0647 21.7314 17.3333 21.4 17.3333H10.6C10.2686 17.3333 10 17.0647 10 16.7333V15.2667Z" fill="black"/>
<path d="M10 19.9333C10 19.602 10.2686 19.3333 10.6 19.3333H21.4C21.7314 19.3333 22 19.602 22 19.9333V21.4C22 21.7314 21.7314 22 21.4 22H10.6C10.2686 22 10 21.7314 10 21.4V19.9333Z" fill="black"/>
</svg>
