<svg id="Layer_1" data-name="Layer 1" xmlns="http://www.w3.org/2000/svg" viewBox="0 0 664 143.1"><defs><style>.cls-1{fill:#00cc9b;}.cls-2{fill:#fefefe;}.cls-3{fill:#888;}</style></defs><path d="M232.33,45.28H219.16V37h23.06v20.8a34.48,34.48,0,0,1-10.49,4.86,46,46,0,0,1-12.63,1.71q-13.36,0-20.89-6.61t-7.52-18.35A26.46,26.46,0,0,1,193.94,26a22.14,22.14,0,0,1,9.42-8.86A31.78,31.78,0,0,1,218,14q9.22,0,15.24,3.82a18.68,18.68,0,0,1,8.08,10.94l-10.69,1.28A10.12,10.12,0,0,0,226,24.51a17,17,0,0,0-8.32-1.78q-7.62,0-11.79,4.26t-4.18,12.18q0,8.11,4.41,12.28t13,4.16q8.09,0,13.23-2.55Z"/><path d="M305.1,39.17a25.85,25.85,0,0,1-3.3,13.25,22.28,22.28,0,0,1-9.56,8.79,36.81,36.81,0,0,1-29.34.14,22.34,22.34,0,0,1-9.62-8.66,25.49,25.49,0,0,1-3.44-13.52,25.78,25.78,0,0,1,3.31-13.25,22.26,22.26,0,0,1,9.55-8.79A36.75,36.75,0,0,1,292,17a22.32,22.32,0,0,1,9.62,8.65A25.52,25.52,0,0,1,305.1,39.17Zm-11.09,0q0-7.79-4.34-12.08T277.44,22.8q-7.81,0-12.17,4.33t-4.34,12q0,7.78,4.34,12.08t12.23,4.29q7.83,0,12.17-4.32T294,39.17Z"/><path d="M313.12,63.13V15.22h21.39q13.69,0,20.88,6.14t7.18,17.81q0,11.47-7.58,17.72t-21.55,6.24Zm20.79-8.93q8.74,0,13.19-3.82t4.45-11.28q0-15-16.71-15H323.75V54.2Z"/><path d="M414.57,63.13,403.67,29l-11,34.09H381.49L365.58,15.22h11.7l10.36,35.36L398.8,15.49h10.29l11.23,35.16,10.35-35.43H442L426.13,63.13Z"/><path d="M500,39.17a25.76,25.76,0,0,1-3.31,13.25,22.26,22.26,0,0,1-9.55,8.79,36.81,36.81,0,0,1-29.34.14,22.34,22.34,0,0,1-9.62-8.66,25.5,25.5,0,0,1-3.45-13.52,25.88,25.88,0,0,1,3.31-13.25,22.28,22.28,0,0,1,9.56-8.79A36.75,36.75,0,0,1,487,17a22.37,22.37,0,0,1,9.62,8.65A25.61,25.61,0,0,1,500,39.17Zm-11.09,0q0-7.79-4.35-12.08T472.37,22.8q-7.81,0-12.16,4.33t-4.34,12q0,7.78,4.34,12.08t12.23,4.29q7.81,0,12.16-4.32T489,39.17Z"/><path d="M545.69,63.13,527.91,39,519.56,46V63.13h-10.7V15.22h10.7V35.08l23.52-19.86h13L535.46,32.66l22.59,30.47Z"/><path d="M653.88,63.13l-27.6-33.49V63.13H616.06V15.22h9.76l27.6,33.48V15.22h10.22V63.13Z"/><polygon id="type_PathItem_2" data-name="type PathItem 2" points="564.93 63.16 564.93 15.22 606.59 15.22 606.59 23.99 575.68 23.99 575.68 34.1 606.59 34.1 606.59 42.88 575.68 42.88 575.68 54.38 606.59 54.38 606.59 63.16 564.93 63.16"/><path d="M64.1,0A64.1,64.1,0,0,0,0,64.1v79H93.91A64.09,64.09,0,0,0,158,79V0Z"/><path class="cls-1" d="M68.08,16.08A51,51,0,0,0,17.13,66.89h0V99.06H34.6V67A33.48,33.48,0,0,1,68.08,33.55h72.79V16.08Z"/><path class="cls-2" d="M123.4,44H68.08a23,23,0,0,0-23,22.2h0v32.9H90.45a1.45,1.45,0,0,0,1-2.49L80.85,86.16,73,78.45s-4.88-5.21-6.69-7c-.79-.79-2.62-2.33-2.62-4.36a4.36,4.36,0,0,1,4.36-4.37H123.4V76.06a33.49,33.49,0,0,1-33.48,33.49H17.13V127H89.92a51,51,0,0,0,51-50.8h0V44Z"/><path class="cls-3" d="M190.69,126.85V81.35h21.72q18.78,0,18.77,11.65,0,7.25-7.68,9.73,9.52,3.06,9.52,10.85a11.18,11.18,0,0,1-5,9.89q-5,3.39-14.63,3.38ZM212.81,100q5.17,0,7.71-1.53A5.24,5.24,0,0,0,223,93.65a4.84,4.84,0,0,0-2.55-4.59q-2.56-1.4-8.34-1.4H198.77V100Zm.19,20.52c4.12,0,7.1-.56,9-1.69a5.82,5.82,0,0,0,2.79-5.38,6,6,0,0,0-2.82-5.45q-2.82-1.76-8.79-1.75H198.77v14.27Z"/><path class="cls-3" d="M279.61,126.85,269,108.94a8.94,8.94,0,0,1-1.14.07H253.16v17.84h-8V81.35h22.37q18.84,0,18.84,13.83,0,9.24-9.19,12.24L289,126.85ZM267,102.44q5.64,0,8.37-1.78a6.17,6.17,0,0,0,2.72-5.55c0-2.54-.87-4.38-2.59-5.51s-4.52-1.69-8.37-1.69h-14v14.53Z"/><path class="cls-3" d="M298.83,126.85V81.35h8.34v45.5Z"/><path class="cls-3" d="M322,126.85V81.35h20.34q13.05,0,20,5.86t6.92,16.89q0,11-7.35,16.86T341,126.85ZM341.22,120q9.66,0,14.54-4t4.89-11.89q0-15.93-18.24-15.93H330.33V120Z"/><path class="cls-3" d="M420.75,109.26H406.52v-6.69h22v19.18a31.81,31.81,0,0,1-10.07,4.63A45.82,45.82,0,0,1,406.25,128a33.94,33.94,0,0,1-14.34-2.8,21.27,21.27,0,0,1-9.38-8.13,23.7,23.7,0,0,1-3.31-12.78,25.06,25.06,0,0,1,3.11-12.68,21.11,21.11,0,0,1,9.06-8.41,30.72,30.72,0,0,1,14-3q8.66,0,14.34,3.51a17.79,17.79,0,0,1,7.77,10l-8.26,1.15a11.24,11.24,0,0,0-5.06-6,18.26,18.26,0,0,0-9-2q-8.26,0-12.83,4.56t-4.56,12.72q0,8.28,4.76,12.71t13.75,4.43q8.79,0,14.43-2.93Z"/><path class="cls-3" d="M441.36,126.85V81.35h38.19v6.82H449.69V100h28.42v6.82H449.69V120H481l-1.18,6.82Z"/></svg>