<svg width="14" height="14" viewBox="0 0 14 14" fill="none" xmlns="http://www.w3.org/2000/svg">
<path fill-rule="evenodd" clip-rule="evenodd" d="M14 0.933333C14 0.417868 13.5821 0 13.0667 0H3.96667C3.4512 0 3.03333 0.417868 3.03333 0.933333V3.03333H0.933333C0.417868 3.03333 0 3.4512 0 3.96667V13.0667C0 13.5821 0.417868 14 0.933333 14H10.0333C10.5488 14 10.9667 13.5821 10.9667 13.0667V10.9667H13.0667C13.5821 10.9667 14 10.5488 14 10.0333V0.933333ZM10.9667 9.56667H12.6V1.4H4.43333V3.03333H10.0333C10.5488 3.03333 10.9667 3.4512 10.9667 3.96667V9.56667ZM9.56667 4.43333H1.4V12.6H9.56667V4.43333Z" fill="#00CC9B"/>
</svg>
